<svg width="33" height="40" viewBox="0 0 33 40" fill="none" xmlns="http://www.w3.org/2000/svg">
<path d="M19.1135 17.2077C21.099 17.2077 22.7086 15.5981 22.7086 13.6126C22.7086 11.6271 21.099 10.0175 19.1135 10.0175C17.128 10.0175 15.5184 11.6271 15.5184 13.6126C15.5184 15.5981 17.128 17.2077 19.1135 17.2077Z" stroke="black" stroke-width="1.43804" stroke-linecap="round" stroke-linejoin="round"/>
<path d="M6.93784 22.5185C8.94355 24.9733 8.34712 28.7797 8.34712 28.7797C8.34712 28.7797 4.49857 28.6053 2.49236 26.1505C0.486152 23.6957 1.08308 19.8893 1.08308 19.8893C1.08308 19.8893 4.93214 20.0656 6.93784 22.5185Z" stroke="black" stroke-width="1.43804" stroke-linecap="round" stroke-linejoin="round"/>
<path d="M20.9007 9.54569C21.0985 9.08135 21.9395 7.18055 22.2776 6.77056C24.1416 4.51018 27.6992 4.36602 27.6992 4.36602C27.6992 4.36602 28.2323 7.88663 26.3701 10.1461C25.8664 10.7568 25.239 11.213 24.5917 11.5536L23.251 12.1645C23.8382 11.8514 25.8321 10.9897 26.54 10.9013C29.4473 10.5385 32.1322 12.8771 32.1322 12.8771C32.1322 12.8771 30.1018 15.8022 27.1964 16.1656C26.1147 16.3004 25.0639 16.0614 24.1706 15.708L23.0832 15.3037C23.8541 15.5914 25.704 16.4268 26.3368 17.0725C28.3873 19.1651 28.1545 22.718 28.1545 22.718C28.1545 22.718 24.5973 22.8757 22.5473 20.785C22.0948 20.3231 21.1916 18.0699 20.9345 17.5197L21.4859 19.2434C21.6574 19.7556 21.768 20.3034 21.7784 20.8741C21.8318 23.8034 19.2224 26.226 19.2224 26.226C19.2224 26.226 16.5285 23.8976 16.4743 20.97C16.4635 20.3704 17.4427 17.5868 17.4427 17.5868L16.6233 19.4721C15.3494 21.2613 13.3766 22.4512 11.1913 22.6708C10.5259 22.7377 10.0813 22.718 10.0813 22.718C10.0813 22.718 9.84851 19.1651 11.8991 17.0725C12.4949 16.4645 13.218 16.0466 13.944 15.7597L15.1742 15.2486C15.1715 15.2497 12.0723 16.2943 11.0393 16.1656C8.13393 15.8022 6.10349 12.8771 6.10349 12.8771C6.10349 12.8771 8.78838 10.5385 11.6957 10.9013C12.2976 10.9765 14.4586 12.0359 14.975 12.282L13.386 11.4109C12.8313 11.0884 12.302 10.6753 11.8656 10.1461C10.0033 7.88663 10.5364 4.36602 10.5364 4.36602C10.5364 4.36602 14.094 4.51018 15.958 6.77049C16.3185 7.20758 17.2909 9.08264 17.4931 9.57927L16.8387 8.18408C16.6269 7.61491 16.4864 6.99799 16.4744 6.35188C16.4214 3.42288 19.0304 1 19.0304 1C19.0304 1 21.7251 3.32668 21.7785 6.25596C21.7902 6.90071 21.673 7.52086 21.483 8.09608" stroke="black" stroke-width="1.43804" stroke-linecap="round" stroke-linejoin="round"/>
<path d="M15.8414 32.1779C18.2963 30.1722 22.1026 30.7686 22.1026 30.7686C22.1026 30.7686 21.9283 34.6172 19.4734 36.6234C17.0186 38.6296 13.2122 38.0327 13.2122 38.0327C13.2122 38.0327 13.3885 34.1836 15.8414 32.1779Z" stroke="black" stroke-width="1.43804" stroke-linecap="round" stroke-linejoin="round"/>
<path d="M14.4931 24.2916C12.0211 26.8427 8.97389 31.6587 10.3019 39.2005" stroke="black" stroke-width="1.43804" stroke-linecap="round" stroke-linejoin="round"/>
</svg>
