<svg width="33" height="32" viewBox="0 0 33 32" fill="none" xmlns="http://www.w3.org/2000/svg">
<path d="M16.5661 1C18.876 3.88733 20.0309 6.19718 20.6084 10.8169C20.8694 12.9053 20.6084 14.2817 20.4308 15.7743C20.4308 15.7743 27.5125 9.66198 32.1322 11.3944C32.1322 11.3944 28.09 15.4366 27.5125 17.169C26.935 18.9014 25.7801 21.2112 23.4703 21.2112C23.4703 21.2112 23.4703 24.0986 29.8224 22.9436C29.8224 22.9436 25.7802 29.2957 18.8506 26.4084C18.8506 26.4084 17.6956 26.9859 17.6956 31.0281H17.1182H16.0141H15.4366C15.4366 26.9859 14.2817 26.4084 14.2817 26.4084C7.35214 29.2957 3.30985 22.9436 3.30985 22.9436C9.66192 24.0986 9.66192 21.2112 9.66192 21.2112C7.35207 21.2112 6.19712 18.9014 5.6197 17.169C5.04222 15.4366 1 11.3944 1 11.3944C5.6197 9.66198 12.7014 15.7743 12.7014 15.7743C12.5239 14.2817 12.2628 12.9053 12.5239 10.8169C13.1013 6.19718 14.2563 3.88733 16.5661 1Z" stroke="black" stroke-width="1.25117" stroke-miterlimit="10" stroke-linecap="round" stroke-linejoin="round"/>
</svg>
