<svg width="154" height="155" viewBox="0 0 154 155" fill="none" xmlns="http://www.w3.org/2000/svg">
<path d="M152.371 84.947C152.733 85.5753 152.968 86.2687 153.062 86.9878C153.156 87.7068 153.107 88.4373 152.918 89.1375C152.729 89.8376 152.404 90.4937 151.962 91.0683C151.52 91.6428 150.968 92.1244 150.339 92.4857L132.115 102.972L141.506 108.4C142.134 108.762 142.684 109.244 143.125 109.819C143.567 110.394 143.891 111.05 144.078 111.75C144.266 112.45 144.314 113.18 144.22 113.899C144.125 114.618 143.89 115.31 143.528 115.938C143.165 116.566 142.683 117.116 142.108 117.557C141.533 117.999 140.877 118.323 140.177 118.51C139.477 118.698 138.747 118.746 138.028 118.652C137.31 118.557 136.617 118.322 135.989 117.96L126.499 112.483L126.469 133.694C126.466 135.156 125.884 136.557 124.849 137.589C123.815 138.622 122.413 139.202 120.952 139.202C120.226 139.202 119.508 139.058 118.838 138.781C118.168 138.503 117.559 138.095 117.047 137.582C116.534 137.069 116.128 136.459 115.852 135.789C115.575 135.118 115.433 134.4 115.434 133.674L115.474 106.109L82.113 86.8491V125.419L105.914 139.162C106.542 139.524 107.092 140.006 107.533 140.581C107.975 141.156 108.298 141.812 108.486 142.512C108.674 143.212 108.722 143.943 108.627 144.661C108.533 145.38 108.298 146.073 107.936 146.7C107.573 147.328 107.091 147.878 106.516 148.32C105.941 148.761 105.285 149.085 104.585 149.272C103.885 149.46 103.155 149.508 102.436 149.414C101.718 149.319 101.025 149.084 100.397 148.722L82.103 138.166V149.061C82.103 150.524 81.5217 151.927 80.4871 152.962C79.4524 153.996 78.0491 154.578 76.5859 154.578C75.1227 154.578 73.7194 153.996 72.6848 152.962C71.6501 151.927 71.0689 150.524 71.0689 149.061V138.156L52.7749 148.712C51.5071 149.444 50.0006 149.642 48.5869 149.263C47.1731 148.883 45.9678 147.958 45.2362 146.69C44.5046 145.423 44.3066 143.916 44.6857 142.502C45.0648 141.089 45.99 139.883 47.2578 139.152L71.0589 125.409V86.8391L37.6975 106.099L37.7374 133.665C37.7387 134.389 37.5973 135.107 37.3212 135.777C37.0452 136.446 36.6399 137.055 36.1285 137.569C35.6171 138.082 35.0097 138.489 34.3408 138.768C33.6719 139.046 32.9548 139.19 32.2303 139.192C30.7688 139.192 29.357 138.612 28.3226 137.579C27.2883 136.547 26.7059 135.146 26.7032 133.684L26.6733 112.473L17.1828 117.95C15.915 118.681 14.4085 118.879 12.9948 118.5C11.581 118.121 10.3757 117.196 9.64411 115.928C8.9125 114.66 8.71447 113.154 9.0936 111.74C9.47272 110.326 10.3979 109.121 11.6657 108.39L21.0567 102.962L2.83242 92.4657C2.19362 92.1099 1.63193 91.6307 1.17999 91.0559C0.728054 90.4811 0.394887 89.8221 0.199861 89.1174C0.00483439 88.4127 -0.048161 87.6763 0.0439552 86.9509C0.136071 86.2255 0.371462 85.5257 0.736441 84.8921C1.10142 84.2585 1.58871 83.7038 2.16998 83.2601C2.75124 82.8165 3.41489 82.4929 4.12235 82.3081C4.8298 82.1232 5.56694 82.0808 6.29092 82.1834C7.01489 82.286 7.71126 82.5314 8.33953 82.9055L32.1008 96.5886L65.5418 77.2689L32.1008 57.989L8.33953 71.6622C7.71114 72.0238 7.01768 72.2581 6.29874 72.3517C5.57981 72.4453 4.84947 72.3964 4.14944 72.2077C3.44941 72.0191 2.7934 71.6944 2.21884 71.2522C1.64429 70.8101 1.16246 70.259 0.800858 69.6306C0.0705691 68.3616 -0.125664 66.8543 0.255327 65.4406C0.636318 64.0268 1.56332 62.8223 2.83242 62.092L21.0567 51.6055L11.6657 46.1781C10.3979 45.4465 9.47272 44.2412 9.0936 42.8275C8.90588 42.1274 8.85787 41.3973 8.95233 40.6787C9.04679 39.9601 9.28185 39.2672 9.64411 38.6394C10.0064 38.0117 10.4887 37.4615 11.0636 37.0201C11.6385 36.5788 12.2947 36.255 12.9948 36.0673C14.4085 35.6882 15.915 35.8862 17.1828 36.6178L26.6733 42.0951L26.7032 20.8832C26.7032 19.42 27.2845 18.0167 28.3191 16.9821C29.3538 15.9474 30.7571 15.3661 32.2203 15.3661C32.9456 15.3661 33.6639 15.5092 34.3339 15.7871C35.0039 16.0649 35.6125 16.4722 36.125 16.9856C36.6374 17.4989 37.0436 18.1083 37.3203 18.7788C37.5969 19.4493 37.7387 20.1678 37.7374 20.8932L37.6975 48.4586L71.0589 67.7285V29.1588L47.2578 15.4159C45.99 14.6843 45.0648 13.4791 44.6857 12.0653C44.3066 10.6515 44.5046 9.14504 45.2362 7.87727C45.9678 6.6095 47.1731 5.68428 48.5869 5.30516C50.0006 4.92603 51.5071 5.12406 52.7749 5.85567L71.0689 16.4118V5.51707C71.0689 4.05386 71.6501 2.65057 72.6848 1.61591C73.7194 0.581262 75.1227 0 76.5859 0C78.0491 0 79.4524 0.581262 80.4871 1.61591C81.5217 2.65057 82.103 4.05386 82.103 5.51707V16.4118L100.397 5.85567C101.665 5.12406 103.171 4.92603 104.585 5.30516C105.999 5.68428 107.204 6.6095 107.936 7.87727C108.667 9.14504 108.865 10.6515 108.486 12.0653C108.107 13.4791 107.182 14.6843 105.914 15.4159L82.113 29.1588V67.7285L115.474 48.4586L115.434 20.8932C115.434 19.4317 116.014 18.0299 117.047 16.9955C118.079 15.9612 119.48 15.3787 120.942 15.3761C122.403 15.3761 123.815 15.956 124.849 16.9885C125.884 18.021 126.466 19.4217 126.469 20.8832L126.499 42.0951L135.989 36.6178C136.617 36.2556 137.31 36.0205 138.028 35.926C138.747 35.8316 139.477 35.8796 140.177 36.0673C140.877 36.255 141.533 36.5788 142.108 37.0201C142.683 37.4615 143.165 38.0117 143.528 38.6394C143.89 39.2672 144.125 39.9601 144.22 40.6787C144.314 41.3973 144.266 42.1274 144.078 42.8275C143.891 43.5275 143.567 44.1837 143.125 44.7586C142.684 45.3335 142.134 45.8158 141.506 46.1781L132.115 51.6055L150.339 62.092C150.978 62.4478 151.54 62.927 151.992 63.5018C152.444 64.0766 152.777 64.7356 152.972 65.4403C153.167 66.145 153.22 66.8815 153.128 67.6068C153.036 68.3322 152.8 69.032 152.435 69.6656C152.07 70.2992 151.583 70.854 151.002 71.2976C150.421 71.7412 149.757 72.0648 149.05 72.2497C148.342 72.4345 147.605 72.4769 146.881 72.3743C146.157 72.2718 145.461 72.0263 144.832 71.6522L121.061 57.989L87.64 77.2888L121.071 96.5986L144.842 82.9154C145.471 82.5533 146.164 82.3186 146.883 82.2248C147.602 82.1309 148.333 82.1797 149.033 82.3684C149.733 82.5571 150.389 82.8819 150.964 83.3244C151.538 83.7669 152.01 84.3182 152.371 84.947Z" fill="black"/>
</svg>
