<svg width="32" height="32" viewBox="0 0 32 32" fill="none" xmlns="http://www.w3.org/2000/svg">
<path d="M4.29006 16.6739H1.10979C0.815457 16.6739 0.533177 16.557 0.32505 16.3488C0.116924 16.1407 0 15.8584 0 15.5641C0 15.2698 0.116924 14.9875 0.32505 14.7794C0.533177 14.5712 0.815457 14.4543 1.10979 14.4543H4.29006C4.5844 14.4543 4.86668 14.5712 5.0748 14.7794C5.28293 14.9875 5.39985 15.2698 5.39985 15.5641C5.39985 15.8584 5.28293 16.1407 5.0748 16.3488C4.86668 16.557 4.5844 16.6739 4.29006 16.6739ZM7.59242 8.70021C7.44672 8.70057 7.3024 8.6721 7.16775 8.61646C7.0331 8.56081 6.91079 8.47908 6.80786 8.37598L4.56025 6.12637C4.35218 5.91829 4.23528 5.63608 4.23528 5.34181C4.23528 5.04754 4.35218 4.76533 4.56025 4.55725C4.76833 4.34917 5.05055 4.23228 5.34481 4.23228C5.63908 4.23228 5.9213 4.34917 6.12937 4.55725L8.37698 6.80686C8.53226 6.96193 8.63803 7.15959 8.6809 7.37481C8.72377 7.59004 8.70181 7.81314 8.6178 8.01588C8.53379 8.21861 8.39151 8.39186 8.20898 8.51368C8.02645 8.6355 7.81187 8.70042 7.59242 8.70021ZM5.34481 26.8932C5.12601 26.893 4.91216 26.8281 4.73017 26.7066C4.54819 26.5851 4.40621 26.4125 4.32212 26.2106C4.23803 26.0086 4.21558 25.7862 4.25759 25.5715C4.29961 25.3567 4.40422 25.1592 4.55825 25.0038L6.80586 22.7542C7.01393 22.5462 7.29615 22.4293 7.59042 22.4293C7.88468 22.4293 8.1669 22.5462 8.37498 22.7542C8.58305 22.9623 8.69995 23.2445 8.69995 23.5388C8.69995 23.8331 8.58305 24.1153 8.37498 24.3234L6.12737 26.571C6.0246 26.6744 5.90236 26.7565 5.76771 26.8125C5.63305 26.8685 5.48865 26.8973 5.34281 26.8972L5.34481 26.8932ZM24.4945 15.5651C24.4941 17.3276 23.9711 19.0505 22.9916 20.5158C22.0122 21.9811 20.6202 23.1231 18.9918 23.7974C17.3634 24.4717 15.5716 24.6481 13.8429 24.3041C12.1143 23.9602 10.5264 23.1114 9.28013 21.8651C8.03383 20.6188 7.18505 19.031 6.84111 17.3023C6.49716 15.5737 6.67348 13.7819 7.34779 12.1534C8.0221 10.525 9.16411 9.13304 10.6294 8.15358C12.0948 7.17413 13.8176 6.65114 15.5801 6.65075C16.7507 6.65048 17.9098 6.88081 18.9913 7.32858C20.0729 7.77635 21.0556 8.43279 21.8834 9.26041C22.7112 10.088 23.3679 11.0706 23.8159 12.152C24.2639 13.2335 24.4945 14.3925 24.4945 15.5631V15.5651ZM15.5661 5.39585C15.4203 5.39585 15.276 5.36711 15.1413 5.31126C15.0067 5.25541 14.8844 5.17356 14.7814 5.07038C14.6784 4.96721 14.5967 4.84474 14.5411 4.70999C14.4855 4.57523 14.4571 4.43083 14.4573 4.28506V1.10879C14.4573 0.814722 14.5741 0.532696 14.7821 0.324758C14.99 0.116819 15.272 0 15.5661 0C15.8602 0 16.1422 0.116819 16.3501 0.324758C16.5581 0.532696 16.6749 0.814722 16.6749 1.10879V4.28706C16.6752 4.43284 16.6467 4.57723 16.5911 4.71199C16.5355 4.84675 16.4538 4.96921 16.3508 5.07239C16.2479 5.17556 16.1255 5.25741 15.9909 5.31326C15.8562 5.36911 15.7119 5.39785 15.5661 5.39785V5.39585ZM15.5661 31.1262C15.272 31.1262 14.99 31.0094 14.7821 30.8015C14.5741 30.5935 14.4573 30.3115 14.4573 30.0174V26.8392C14.4573 26.5451 14.5741 26.2631 14.7821 26.0551C14.99 25.8472 15.272 25.7304 15.5661 25.7304C15.8602 25.7304 16.1422 25.8472 16.3501 26.0551C16.5581 26.2631 16.6749 26.5451 16.6749 26.8392V30.0174C16.6749 30.163 16.6462 30.3072 16.5905 30.4417C16.5348 30.5763 16.4531 30.6985 16.3501 30.8015C16.2472 30.9044 16.1249 30.9861 15.9904 31.0418C15.8559 31.0975 15.7117 31.1262 15.5661 31.1262ZM23.5398 8.69821C23.3203 8.69841 23.1058 8.6335 22.9232 8.51168C22.7407 8.38986 22.5984 8.21661 22.5144 8.01387C22.4304 7.81114 22.4084 7.58804 22.4513 7.37281C22.4942 7.15759 22.6 6.95993 22.7552 6.80486L25.0028 4.55725C25.2107 4.34917 25.4926 4.23217 25.7867 4.23198C26.0808 4.2318 26.3629 4.34844 26.571 4.55625C26.779 4.76406 26.896 5.04602 26.8962 5.3401C26.8964 5.63418 26.7798 5.91629 26.572 6.12437L24.3244 8.37197C24.2217 8.47553 24.0994 8.55769 23.9648 8.61368C23.8301 8.66968 23.6856 8.69841 23.5398 8.69821ZM25.7874 26.8912C25.6417 26.8914 25.4974 26.8629 25.3628 26.8073C25.2282 26.7516 25.1058 26.67 25.0028 26.567L22.7552 24.3194C22.6522 24.2163 22.5705 24.094 22.5147 23.9594C22.459 23.8248 22.4303 23.6805 22.4303 23.5348C22.4303 23.3891 22.459 23.2448 22.5147 23.1102C22.5705 22.9756 22.6522 22.8533 22.7552 22.7502C22.8583 22.6472 22.9806 22.5655 23.1152 22.5097C23.2498 22.454 23.3941 22.4253 23.5398 22.4253C23.6855 22.4253 23.8298 22.454 23.9644 22.5097C24.099 22.5655 24.2213 22.6472 24.3244 22.7502L26.572 24.9998C26.7272 25.1549 26.833 25.3526 26.8759 25.5678C26.9188 25.783 26.8968 26.0061 26.8128 26.2089C26.7288 26.4116 26.5865 26.5848 26.404 26.7067C26.2214 26.8285 26.0069 26.8934 25.7874 26.8932V26.8912ZM30.0224 16.6719H26.8422C26.5478 16.6719 26.2655 16.555 26.0574 16.3468C25.8493 16.1387 25.7324 15.8564 25.7324 15.5621C25.7324 15.2678 25.8493 14.9855 26.0574 14.7774C26.2655 14.5692 26.5478 14.4523 26.8422 14.4523H30.0224C30.3168 14.4523 30.599 14.5692 30.8072 14.7774C31.0153 14.9855 31.1322 15.2678 31.1322 15.5621C31.1322 15.8564 31.0153 16.1387 30.8072 16.3468C30.599 16.555 30.3168 16.6719 30.0224 16.6719Z" fill="black"/>
</svg>
