<svg width="38" height="38" viewBox="0 0 38 38" fill="none" xmlns="http://www.w3.org/2000/svg">
<path d="M18.9772 0.00408227C18.9385 0.0111429 18.8998 0.0217324 18.8646 0.0323228C18.4457 0.127635 18.1499 0.505353 18.1605 0.936021V6.35821C18.157 6.68298 18.326 6.98656 18.6076 7.15248C18.8892 7.31486 19.2342 7.31486 19.5159 7.15248C19.7975 6.98656 19.9665 6.68298 19.963 6.35821V0.936021C19.9735 0.674796 19.8679 0.424161 19.6813 0.247657C19.4912 0.0676238 19.2342 -0.0206285 18.9772 0.00408227ZM6.13463 5.31331C5.79667 5.37332 5.52559 5.62043 5.43054 5.94872C5.33549 6.28055 5.43406 6.63356 5.68401 6.86654L9.51426 10.7073C9.73253 10.9755 10.0811 11.0991 10.419 11.0214C10.7535 10.9438 11.0175 10.679 11.0949 10.3437C11.1724 10.0048 11.0492 9.6553 10.7816 9.43643L6.95137 5.59571C6.76479 5.3945 6.49372 5.29213 6.21912 5.31331C6.19096 5.31331 6.16279 5.31331 6.13463 5.31331ZM31.7072 5.31331C31.503 5.34155 31.3129 5.44392 31.1721 5.59571L27.3418 9.43643C27.0743 9.6553 26.9511 10.0048 27.0285 10.3437C27.106 10.679 27.37 10.9438 27.7044 11.0214C28.0424 11.0991 28.3909 10.9755 28.6092 10.7073L32.4394 6.86654C32.7211 6.59825 32.8021 6.17818 32.6366 5.82517C32.4676 5.46863 32.0944 5.26389 31.7072 5.31331ZM18.9772 9.973C18.9491 9.98006 18.9209 9.99065 18.8927 10.0012C18.8364 10.0048 18.7801 10.0154 18.7238 10.0295C18.7132 10.0401 18.7062 10.0471 18.6956 10.0577C13.9148 10.2625 10.0494 14.1667 10.0494 19.01C10.0494 23.9839 14.1014 28.047 19.0617 28.047C24.022 28.047 28.0741 23.9839 28.0741 19.01C28.0741 14.1844 24.2403 10.2942 19.4842 10.0577C19.4525 10.0577 19.4314 10.0295 19.3997 10.0295C19.3082 9.99418 19.2131 9.97653 19.1181 9.973C19.1005 9.973 19.0793 9.973 19.0617 9.973C19.0336 9.973 19.0054 9.973 18.9772 9.973ZM19.0054 11.7804C19.023 11.7804 19.0441 11.7804 19.0617 11.7804C19.0899 11.7804 19.1181 11.7804 19.1462 11.7804C23.0891 11.8263 26.2716 15.0457 26.2716 19.01C26.2716 23.006 23.0469 26.2396 19.0617 26.2396C15.0801 26.2396 11.8518 23.006 11.8518 19.01C11.8518 15.0351 15.0484 11.8122 19.0054 11.7804ZM0.783542 18.1063C0.287159 18.1769 -0.0613662 18.6393 0.00904289 19.1371C0.0794519 19.6348 0.540631 19.9843 1.03701 19.9137H6.44443C6.76831 19.9172 7.07107 19.7478 7.23653 19.4654C7.39847 19.183 7.39847 18.837 7.23653 18.5546C7.07107 18.2722 6.76831 18.1028 6.44443 18.1063H1.03701C1.00885 18.1063 0.980688 18.1063 0.952524 18.1063C0.92436 18.1063 0.896197 18.1063 0.868033 18.1063C0.83987 18.1063 0.811706 18.1063 0.783542 18.1063ZM31.4256 18.1063C30.9292 18.1769 30.5806 18.6393 30.6511 19.1371C30.7215 19.6348 31.1826 19.9843 31.679 19.9137H37.0864C37.4103 19.9172 37.7131 19.7478 37.8785 19.4654C38.0405 19.183 38.0405 18.837 37.8785 18.5546C37.7131 18.2722 37.4103 18.1028 37.0864 18.1063H31.679C31.6509 18.1063 31.6227 18.1063 31.5945 18.1063C31.5664 18.1063 31.5382 18.1063 31.51 18.1063C31.4819 18.1063 31.4537 18.1063 31.4256 18.1063ZM10.0494 27.0303C9.84519 27.0585 9.65508 27.1609 9.51426 27.3127L5.68401 31.1534C5.41646 31.3723 5.29324 31.7218 5.37069 32.0607C5.44814 32.396 5.71218 32.6608 6.04662 32.7384C6.38458 32.8161 6.73311 32.6925 6.95137 32.4243L10.7816 28.5835C11.0492 28.3258 11.1302 27.9269 10.9858 27.5845C10.845 27.2421 10.5035 27.0232 10.1339 27.0303C10.1057 27.0303 10.0775 27.0303 10.0494 27.0303ZM27.7925 27.0303C27.4545 27.0903 27.1834 27.3374 27.0884 27.6657C26.9933 27.9975 27.0919 28.3506 27.3418 28.5835L31.1721 32.4243C31.3904 32.6925 31.7389 32.8161 32.0768 32.7384C32.4113 32.6608 32.6753 32.396 32.7528 32.0607C32.8302 31.7218 32.707 31.3723 32.4394 31.1534L28.6092 27.3127C28.4402 27.1327 28.2079 27.0338 27.9614 27.0303C27.9333 27.0303 27.9051 27.0303 27.8769 27.0303C27.8488 27.0303 27.8206 27.0303 27.7925 27.0303ZM18.9772 30.7298C18.9385 30.7369 18.8998 30.7475 18.8646 30.7581C18.4457 30.8534 18.1499 31.2311 18.1605 31.6618V37.0839C18.157 37.4087 18.326 37.7123 18.6076 37.8782C18.8892 38.0406 19.2342 38.0406 19.5159 37.8782C19.7975 37.7123 19.9665 37.4087 19.963 37.0839V31.6618C19.9735 31.4005 19.8679 31.1499 19.6813 30.9734C19.4912 30.7934 19.2342 30.7051 18.9772 30.7298Z" fill="black"/>
</svg>
