<svg width="189" height="294" viewBox="0 0 189 294" fill="none" xmlns="http://www.w3.org/2000/svg">
<circle cx="153" cy="285" r="9" fill="#404040"/>
<circle cx="153" cy="285" r="5" fill="white"/>
<circle cx="95" cy="285" r="9" fill="#404040"/>
<circle cx="95" cy="285" r="5" fill="white"/>
<circle cx="37" cy="285" r="9" fill="#404040"/>
<circle cx="37" cy="285" r="5" fill="white"/>
<circle cx="95" cy="285" r="5" fill="white"/>
<g filter="url(#filter0_d_13_91)">
<rect x="73.5" y="2.5" width="46" height="39" rx="7.5" stroke="black" stroke-width="5" shape-rendering="crispEdges"/>
</g>
<g filter="url(#filter1_d_13_91)">
<rect x="4" y="35" width="181" height="243" rx="25" fill="#DEDFE8" fill-opacity="0.83" shape-rendering="crispEdges"/>
<rect x="9" y="40" width="171" height="233" rx="20" stroke="#696A70" stroke-width="10" shape-rendering="crispEdges"/>
</g>
<path id= "cierre" d="M35.0871 88.8847L34.4472 226.993" stroke="#A69595" stroke-width="2"/>
<g filter="url(#filter2_d_13_91)">
<rect width="48.3648" height="62.1777" rx="3" transform="matrix(0.974669 -0.223652 0.231685 0.972791 98.2067 47.0853)" fill="#404040"/>
</g>
<rect width="14.202" height="16.0479" rx="1" transform="matrix(0.975098 -0.221775 0.229748 0.97325 129 48)" fill="white"/>
<rect width="14.202" height="16.0479" rx="1" transform="matrix(0.975098 -0.221775 0.229748 0.97325 134 67.1497)" fill="white"/>
<line x1="30" y1="204" x2="40" y2="204" stroke="#A69595" stroke-width="2"/>
<line x1="30" y1="180" x2="40" y2="180" stroke="#A69595" stroke-width="2"/>
<line x1="30" y1="111" x2="40" y2="111" stroke="#A69595" stroke-width="2"/>
<line x1="30" y1="155" x2="40" y2="155" stroke="#A69595" stroke-width="2"/>
<line x1="30" y1="132" x2="40" y2="132" stroke="#A69595" stroke-width="2"/>
<g filter="url(#filter3_d_13_91)">
<path d="M138 37.5C138 37.5 132.019 22.3911 126.5 19.5C121.527 16.895 118.486 16.7363 113 18.5C107.486 20.2728 106 22 104 27C101.047 34.383 105.5 45.5 105.5 45.5" stroke="black" stroke-width="2"/>
</g>
<ellipse cx="106.08" cy="45.2264" rx="5.00106" ry="0.964926" transform="rotate(-15 106.08 45.2264)" fill="black"/>
<ellipse cx="138.08" cy="38.2264" rx="5.00106" ry="0.964926" transform="rotate(-15 138.08 38.2264)" fill="black"/>
<defs>
<filter id="filter0_d_13_91" x="67" y="0" width="59" height="52" filterUnits="userSpaceOnUse" color-interpolation-filters="sRGB">
<feFlood flood-opacity="0" result="BackgroundImageFix"/>
<feColorMatrix in="SourceAlpha" type="matrix" values="0 0 0 0 0 0 0 0 0 0 0 0 0 0 0 0 0 0 127 0" result="hardAlpha"/>
<feOffset dy="4"/>
<feGaussianBlur stdDeviation="2"/>
<feComposite in2="hardAlpha" operator="out"/>
<feColorMatrix type="matrix" values="0 0 0 0 0 0 0 0 0 0 0 0 0 0 0 0 0 0 0.25 0"/>
<feBlend mode="normal" in2="BackgroundImageFix" result="effect1_dropShadow_13_91"/>
<feBlend mode="normal" in="SourceGraphic" in2="effect1_dropShadow_13_91" result="shape"/>
</filter>
<filter id="filter1_d_13_91" x="0" y="35" width="189" height="251" filterUnits="userSpaceOnUse" color-interpolation-filters="sRGB">
<feFlood flood-opacity="0" result="BackgroundImageFix"/>
<feColorMatrix in="SourceAlpha" type="matrix" values="0 0 0 0 0 0 0 0 0 0 0 0 0 0 0 0 0 0 127 0" result="hardAlpha"/>
<feOffset dy="4"/>
<feGaussianBlur stdDeviation="2"/>
<feComposite in2="hardAlpha" operator="out"/>
<feColorMatrix type="matrix" values="0 0 0 0 0 0 0 0 0 0 0 0 0 0 0 0 0 0 0.25 0"/>
<feBlend mode="normal" in2="BackgroundImageFix" result="effect1_dropShadow_13_91"/>
<feBlend mode="normal" in="SourceGraphic" in2="effect1_dropShadow_13_91" result="shape"/>
</filter>
<filter id="filter2_d_13_91" x="94.8196" y="36.8626" width="68.3195" height="78.1145" filterUnits="userSpaceOnUse" color-interpolation-filters="sRGB">
<feFlood flood-opacity="0" result="BackgroundImageFix"/>
<feColorMatrix in="SourceAlpha" type="matrix" values="0 0 0 0 0 0 0 0 0 0 0 0 0 0 0 0 0 0 127 0" result="hardAlpha"/>
<feOffset dy="4"/>
<feGaussianBlur stdDeviation="2"/>
<feComposite in2="hardAlpha" operator="out"/>
<feColorMatrix type="matrix" values="0 0 0 0 0 0 0 0 0 0 0 0 0 0 0 0 0 0 0.25 0"/>
<feBlend mode="normal" in2="BackgroundImageFix" result="effect1_dropShadow_13_91"/>
<feBlend mode="normal" in="SourceGraphic" in2="effect1_dropShadow_13_91" result="shape"/>
</filter>
<filter id="filter3_d_13_91" x="97.9884" y="16.3328" width="44.9411" height="37.5385" filterUnits="userSpaceOnUse" color-interpolation-filters="sRGB">
<feFlood flood-opacity="0" result="BackgroundImageFix"/>
<feColorMatrix in="SourceAlpha" type="matrix" values="0 0 0 0 0 0 0 0 0 0 0 0 0 0 0 0 0 0 127 0" result="hardAlpha"/>
<feOffset dy="4"/>
<feGaussianBlur stdDeviation="2"/>
<feComposite in2="hardAlpha" operator="out"/>
<feColorMatrix type="matrix" values="0 0 0 0 0 0 0 0 0 0 0 0 0 0 0 0 0 0 0.25 0"/>
<feBlend mode="normal" in2="BackgroundImageFix" result="effect1_dropShadow_13_91"/>
<feBlend mode="normal" in="SourceGraphic" in2="effect1_dropShadow_13_91" result="shape"/>
</filter>
</defs>
</svg>
